<svg width="244" height="240" viewBox="0 0 244 240" fill="none" xmlns="http://www.w3.org/2000/svg">
<path fill-rule="evenodd" clip-rule="evenodd" d="M15 21H136.906C145.793 21 154.638 22.2202 163.193 24.6265L166.374 25.5213C177.104 28.5396 187.099 33.735 195.734 40.7839C203.12 46.8124 209.386 54.0944 214.246 62.2962L214.844 63.3059C220.283 72.4846 224.003 82.5775 225.823 93.0901L227.534 102.971C228.51 108.605 229 114.313 229 120.03V129.633C229 143.338 225.648 156.835 219.237 168.948C214.641 177.633 208.558 185.444 201.264 192.027L197.417 195.498C187.682 204.284 176.167 210.868 163.656 214.801C154.804 217.584 145.578 219 136.299 219H55.4282V153.178H15V138.195H69.9824V202.411H134.478C142.818 202.411 151.105 201.097 159.036 198.518C171.695 194.401 183.116 187.167 192.249 177.483L195.76 173.759C199.928 169.339 203.409 164.319 206.085 158.865L206.866 157.275C210.434 150.003 212.29 142.01 212.29 133.91V131.37C212.29 125.291 210.957 119.286 208.386 113.777C204.289 105.002 197.259 97.9309 188.507 93.7842L178.33 88.9622L182.906 107.832C184.515 114.466 184.949 121.33 184.19 128.113L183.845 131.191C183.054 138.259 180.616 145.042 176.726 150.996C172.135 158.022 165.689 163.639 158.102 167.226L157.092 167.703C150.49 170.825 143.278 172.443 135.975 172.443H101.786V124.816H55.4282V108.762H115.801V156.924H133.05H139.252C146.363 156.924 153.222 154.287 158.502 149.522C160.922 147.338 162.953 144.757 164.507 141.891L165.202 140.611C168.157 135.162 169.705 129.061 169.705 122.863V118.737C169.705 110.213 166.741 101.954 161.319 95.3759C154.342 86.9096 143.945 82.0054 132.974 82.0054H73.7557L53.5327 73.4483C45.2227 69.932 37.9112 64.4152 32.2494 57.3892C26.5449 50.3103 22.1433 42.2745 19.2495 33.6561L15 21ZM153.922 37.8422C149.362 36.9495 144.726 36.5 140.078 36.5H38.5L47.058 45.9749C50.6653 49.9688 54.8547 53.3954 59.4847 56.1391C63.8067 58.7002 68.4679 60.6398 73.331 61.9006L73.5221 61.9502C77.4948 62.9801 81.5706 63.5613 85.6729 63.6827L137.507 65.2171C143.865 65.4053 150.19 66.1996 156.397 67.5893L166.098 69.7613C174.221 71.58 182.085 74.4058 189.508 78.1731L206.899 87L204.491 80.401C201.526 72.2731 196.968 64.7639 191.14 58.3685C187.303 54.1572 182.913 50.4369 178.125 47.3498C171.106 42.8246 163.29 39.6759 155.094 38.0716L153.922 37.8422Z" fill="#020202"/>
<path d="M32.2494 57.3892V57.3892C37.9112 64.4152 45.2227 69.932 53.5327 73.4483V73.4483M32.2494 57.3892V57.3892C26.5449 50.3103 22.1433 42.2745 19.2495 33.6561V33.6561M32.2494 57.3892C26.5449 50.3103 22.1433 42.2745 19.2495 33.6561M32.2494 57.3892C37.9112 64.4152 45.2227 69.932 53.5327 73.4483M136.906 21H15L19.2495 33.6561M136.906 21C145.793 21 154.638 22.2202 163.193 24.6265M136.906 21V21C145.793 21 154.638 22.2202 163.193 24.6265V24.6265M53.5327 73.4483L73.7557 82.0054H132.974M132.974 82.0054C143.945 82.0054 154.342 86.9096 161.319 95.3759M132.974 82.0054V82.0054C143.945 82.0054 154.342 86.9096 161.319 95.3759V95.3759M161.319 95.3759C166.741 101.954 169.705 110.213 169.705 118.737M161.319 95.3759V95.3759C166.741 101.954 169.705 110.213 169.705 118.737V118.737M169.705 118.737V122.863M169.705 122.863C169.705 129.061 168.157 135.162 165.202 140.611M169.705 122.863V122.863C169.705 129.061 168.157 135.162 165.202 140.611V140.611M165.202 140.611L164.507 141.891M164.507 141.891C162.953 144.757 160.922 147.338 158.502 149.522M164.507 141.891V141.891C162.953 144.757 160.922 147.338 158.502 149.522V149.522M158.502 149.522C153.222 154.287 146.363 156.924 139.252 156.924M158.502 149.522V149.522C153.222 154.287 146.363 156.924 139.252 156.924V156.924M139.252 156.924H133.05H115.801V108.762H55.4282V124.816H101.786V172.443H135.975M135.975 172.443C143.278 172.443 150.49 170.825 157.092 167.703M135.975 172.443V172.443C143.278 172.443 150.49 170.824 157.092 167.703V167.703M157.092 167.703L158.102 167.226M158.102 167.226C165.689 163.639 172.135 158.022 176.726 150.996M158.102 167.226V167.226C165.689 163.639 172.135 158.022 176.726 150.996V150.996M176.726 150.996C180.616 145.042 183.054 138.259 183.845 131.191M176.726 150.996V150.996C180.616 145.042 183.054 138.259 183.845 131.191V131.191M183.845 131.191L184.19 128.113M184.19 128.113C184.949 121.33 184.515 114.466 182.906 107.832M184.19 128.113V128.113C184.949 121.33 184.515 114.466 182.906 107.832V107.832M182.906 107.832L178.33 88.9622L188.507 93.7842M188.507 93.7842C197.259 97.9309 204.289 105.002 208.386 113.777M188.507 93.7842V93.7842C197.259 97.9309 204.289 105.002 208.386 113.777V113.777M208.386 113.777C210.957 119.286 212.29 125.291 212.29 131.37M208.386 113.777V113.777C210.957 119.286 212.29 125.291 212.29 131.37V131.37M212.29 131.37V133.91M212.29 133.91C212.29 142.01 210.434 150.003 206.866 157.275M212.29 133.91V133.91C212.29 142.01 210.434 150.003 206.866 157.275V157.275M206.866 157.275L206.085 158.865M206.085 158.865C203.409 164.319 199.928 169.339 195.76 173.759M206.085 158.865V158.865C203.409 164.319 199.928 169.339 195.76 173.759V173.759M195.76 173.759L192.249 177.483M192.249 177.483C183.116 187.167 171.695 194.401 159.036 198.518M192.249 177.483V177.483C183.116 187.167 171.695 194.401 159.036 198.518V198.518M159.036 198.518C151.105 201.097 142.818 202.411 134.478 202.411M159.036 198.518V198.518C151.105 201.097 142.818 202.411 134.478 202.411V202.411M134.478 202.411H69.9824V138.195H15V153.178H55.4282V219H136.299M136.299 219C145.578 219 154.804 217.584 163.656 214.801M136.299 219V219C145.578 219 154.804 217.584 163.656 214.801V214.801M163.656 214.801C176.167 210.868 187.682 204.284 197.417 195.498M163.656 214.801V214.801C176.167 210.868 187.682 204.284 197.417 195.498V195.498M197.417 195.498L201.264 192.027M201.264 192.027C208.558 185.444 214.641 177.633 219.237 168.948M201.264 192.027V192.027C208.558 185.444 214.641 177.633 219.237 168.948V168.948M219.237 168.948C225.648 156.835 229 143.338 229 129.633M219.237 168.948V168.948C225.648 156.835 229 143.338 229 129.633V129.633M229 129.633V120.03M229 120.03C229 114.313 228.51 108.605 227.534 102.971M229 120.03V120.03C229 114.313 228.51 108.605 227.534 102.971V102.971M227.534 102.971L225.823 93.0901M225.823 93.0901C224.003 82.5775 220.283 72.4846 214.844 63.3059M225.823 93.0901V93.0901C224.003 82.5775 220.283 72.4846 214.844 63.3059V63.3059M214.844 63.3059L214.246 62.2962M214.246 62.2962C209.386 54.0944 203.12 46.8124 195.734 40.7839M214.246 62.2962V62.2962C209.386 54.0944 203.12 46.8124 195.734 40.7839V40.7839M195.734 40.7839C187.099 33.735 177.104 28.5396 166.374 25.5213M195.734 40.7839V40.7839C187.099 33.735 177.104 28.5396 166.374 25.5213V25.5213M166.374 25.5213L163.193 24.6265M38.5 36.5H140.078C144.726 36.5 149.362 36.9495 153.922 37.8422L155.094 38.0716C163.29 39.6759 171.106 42.8246 178.125 47.3498V47.3498C182.913 50.4369 187.303 54.1572 191.14 58.3684V58.3684C196.968 64.7639 201.526 72.2731 204.491 80.401L206.899 87L189.508 78.1731C182.085 74.4058 174.221 71.58 166.098 69.7613L156.397 67.5893C150.19 66.1996 143.865 65.4053 137.507 65.2171L85.6729 63.6827C81.5706 63.5613 77.4948 62.9801 73.5221 61.9502L73.331 61.9006C68.4679 60.6398 63.8067 58.7002 59.4847 56.1391V56.1391C54.8547 53.3954 50.6653 49.9688 47.058 45.9749L38.5 36.5Z" stroke="black"/>
</svg>
